<mxfile host="app.diagrams.net" agent="Mozilla/5.0 (X11; Ubuntu; Linux x86_64; rv:123.0) Gecko/20100101 Firefox/123.0" version="24.7.7">
  <diagram name="Page-1" id="WAuIdhl128EKoYWnE_eZ">
    <mxGraphModel>
      <root>
        <mxCell id="0" />
        <mxCell id="1" parent="0" />
        <mxCell id="2" value="Chefe" style="ellipse;aspect=fixed;strokeWidth=2;whiteSpace=wrap;" vertex="1" parent="1">
          <mxGeometry y="1416" width="58" height="58" as="geometry" />
        </mxCell>
        <mxCell id="3" value="Gerente1" style="rounded=1;absoluteArcSize=1;arcSize=14;whiteSpace=wrap;strokeWidth=2;" vertex="1" parent="1">
          <mxGeometry x="108" y="252" width="82" height="34" as="geometry" />
        </mxCell>
        <mxCell id="4" value="Gerente2" style="rounded=1;absoluteArcSize=1;arcSize=14;whiteSpace=wrap;strokeWidth=2;" vertex="1" parent="1">
          <mxGeometry x="108" y="840" width="82" height="34" as="geometry" />
        </mxCell>
        <mxCell id="5" value="Gerente3" style="rounded=1;absoluteArcSize=1;arcSize=14;whiteSpace=wrap;strokeWidth=2;" vertex="1" parent="1">
          <mxGeometry x="108" y="1428" width="82" height="34" as="geometry" />
        </mxCell>
        <mxCell id="6" value="Gerente4" style="rounded=1;absoluteArcSize=1;arcSize=14;whiteSpace=wrap;strokeWidth=2;" vertex="1" parent="1">
          <mxGeometry x="108" y="2016" width="82" height="34" as="geometry" />
        </mxCell>
        <mxCell id="7" value="Gerente5" style="rounded=1;absoluteArcSize=1;arcSize=14;whiteSpace=wrap;strokeWidth=2;" vertex="1" parent="1">
          <mxGeometry x="108" y="2604" width="82" height="34" as="geometry" />
        </mxCell>
        <mxCell id="8" value="Empregado1" style="rounded=1;absoluteArcSize=1;arcSize=14;whiteSpace=wrap;strokeWidth=2;" vertex="1" parent="1">
          <mxGeometry x="244" width="107" height="34" as="geometry" />
        </mxCell>
        <mxCell id="9" value="Empregado2" style="rounded=1;absoluteArcSize=1;arcSize=14;whiteSpace=wrap;strokeWidth=2;" vertex="1" parent="1">
          <mxGeometry x="244" y="84" width="107" height="34" as="geometry" />
        </mxCell>
        <mxCell id="10" value="Empregado3" style="rounded=1;absoluteArcSize=1;arcSize=14;whiteSpace=wrap;strokeWidth=2;" vertex="1" parent="1">
          <mxGeometry x="244" y="168" width="107" height="34" as="geometry" />
        </mxCell>
        <mxCell id="11" value="Empregado4" style="rounded=1;absoluteArcSize=1;arcSize=14;whiteSpace=wrap;strokeWidth=2;" vertex="1" parent="1">
          <mxGeometry x="244" y="252" width="107" height="34" as="geometry" />
        </mxCell>
        <mxCell id="12" value="Empregado5" style="rounded=1;absoluteArcSize=1;arcSize=14;whiteSpace=wrap;strokeWidth=2;" vertex="1" parent="1">
          <mxGeometry x="244" y="336" width="107" height="34" as="geometry" />
        </mxCell>
        <mxCell id="13" value="Empregado6" style="rounded=1;absoluteArcSize=1;arcSize=14;whiteSpace=wrap;strokeWidth=2;" vertex="1" parent="1">
          <mxGeometry x="244" y="420" width="107" height="34" as="geometry" />
        </mxCell>
        <mxCell id="14" value="Empregado7" style="rounded=1;absoluteArcSize=1;arcSize=14;whiteSpace=wrap;strokeWidth=2;" vertex="1" parent="1">
          <mxGeometry x="244" y="504" width="107" height="34" as="geometry" />
        </mxCell>
        <mxCell id="15" value="Empregado8" style="rounded=1;absoluteArcSize=1;arcSize=14;whiteSpace=wrap;strokeWidth=2;" vertex="1" parent="1">
          <mxGeometry x="244" y="588" width="107" height="34" as="geometry" />
        </mxCell>
        <mxCell id="16" value="Empregado9" style="rounded=1;absoluteArcSize=1;arcSize=14;whiteSpace=wrap;strokeWidth=2;" vertex="1" parent="1">
          <mxGeometry x="244" y="672" width="107" height="34" as="geometry" />
        </mxCell>
        <mxCell id="17" value="Empregado10" style="rounded=1;absoluteArcSize=1;arcSize=14;whiteSpace=wrap;strokeWidth=2;" vertex="1" parent="1">
          <mxGeometry x="239" y="756" width="116" height="34" as="geometry" />
        </mxCell>
        <mxCell id="18" value="Empregado11" style="rounded=1;absoluteArcSize=1;arcSize=14;whiteSpace=wrap;strokeWidth=2;" vertex="1" parent="1">
          <mxGeometry x="239" y="840" width="116" height="34" as="geometry" />
        </mxCell>
        <mxCell id="19" value="Empregado12" style="rounded=1;absoluteArcSize=1;arcSize=14;whiteSpace=wrap;strokeWidth=2;" vertex="1" parent="1">
          <mxGeometry x="239" y="924" width="116" height="34" as="geometry" />
        </mxCell>
        <mxCell id="20" value="Empregado13" style="rounded=1;absoluteArcSize=1;arcSize=14;whiteSpace=wrap;strokeWidth=2;" vertex="1" parent="1">
          <mxGeometry x="239" y="1008" width="116" height="34" as="geometry" />
        </mxCell>
        <mxCell id="21" value="Empregado14" style="rounded=1;absoluteArcSize=1;arcSize=14;whiteSpace=wrap;strokeWidth=2;" vertex="1" parent="1">
          <mxGeometry x="239" y="1092" width="116" height="34" as="geometry" />
        </mxCell>
        <mxCell id="22" value="Empregado15" style="rounded=1;absoluteArcSize=1;arcSize=14;whiteSpace=wrap;strokeWidth=2;" vertex="1" parent="1">
          <mxGeometry x="239" y="1176" width="116" height="34" as="geometry" />
        </mxCell>
        <mxCell id="23" value="Empregado16" style="rounded=1;absoluteArcSize=1;arcSize=14;whiteSpace=wrap;strokeWidth=2;" vertex="1" parent="1">
          <mxGeometry x="239" y="1260" width="116" height="34" as="geometry" />
        </mxCell>
        <mxCell id="24" value="Empregado17" style="rounded=1;absoluteArcSize=1;arcSize=14;whiteSpace=wrap;strokeWidth=2;" vertex="1" parent="1">
          <mxGeometry x="239" y="1344" width="116" height="34" as="geometry" />
        </mxCell>
        <mxCell id="25" value="Empregado18" style="rounded=1;absoluteArcSize=1;arcSize=14;whiteSpace=wrap;strokeWidth=2;" vertex="1" parent="1">
          <mxGeometry x="239" y="1428" width="116" height="34" as="geometry" />
        </mxCell>
        <mxCell id="26" value="Empregado19" style="rounded=1;absoluteArcSize=1;arcSize=14;whiteSpace=wrap;strokeWidth=2;" vertex="1" parent="1">
          <mxGeometry x="239" y="1512" width="116" height="34" as="geometry" />
        </mxCell>
        <mxCell id="27" value="Empregado20" style="rounded=1;absoluteArcSize=1;arcSize=14;whiteSpace=wrap;strokeWidth=2;" vertex="1" parent="1">
          <mxGeometry x="239" y="1596" width="116" height="34" as="geometry" />
        </mxCell>
        <mxCell id="28" value="Empregado21" style="rounded=1;absoluteArcSize=1;arcSize=14;whiteSpace=wrap;strokeWidth=2;" vertex="1" parent="1">
          <mxGeometry x="239" y="1680" width="116" height="34" as="geometry" />
        </mxCell>
        <mxCell id="29" value="Empregado22" style="rounded=1;absoluteArcSize=1;arcSize=14;whiteSpace=wrap;strokeWidth=2;" vertex="1" parent="1">
          <mxGeometry x="239" y="1764" width="116" height="34" as="geometry" />
        </mxCell>
        <mxCell id="30" value="Empregado23" style="rounded=1;absoluteArcSize=1;arcSize=14;whiteSpace=wrap;strokeWidth=2;" vertex="1" parent="1">
          <mxGeometry x="239" y="1848" width="116" height="34" as="geometry" />
        </mxCell>
        <mxCell id="31" value="Empregado24" style="rounded=1;absoluteArcSize=1;arcSize=14;whiteSpace=wrap;strokeWidth=2;" vertex="1" parent="1">
          <mxGeometry x="239" y="1932" width="116" height="34" as="geometry" />
        </mxCell>
        <mxCell id="32" value="Empregado25" style="rounded=1;absoluteArcSize=1;arcSize=14;whiteSpace=wrap;strokeWidth=2;" vertex="1" parent="1">
          <mxGeometry x="239" y="2016" width="116" height="34" as="geometry" />
        </mxCell>
        <mxCell id="33" value="Empregado26" style="rounded=1;absoluteArcSize=1;arcSize=14;whiteSpace=wrap;strokeWidth=2;" vertex="1" parent="1">
          <mxGeometry x="239" y="2100" width="116" height="34" as="geometry" />
        </mxCell>
        <mxCell id="34" value="Empregado27" style="rounded=1;absoluteArcSize=1;arcSize=14;whiteSpace=wrap;strokeWidth=2;" vertex="1" parent="1">
          <mxGeometry x="239" y="2184" width="116" height="34" as="geometry" />
        </mxCell>
        <mxCell id="35" value="Empregado28" style="rounded=1;absoluteArcSize=1;arcSize=14;whiteSpace=wrap;strokeWidth=2;" vertex="1" parent="1">
          <mxGeometry x="239" y="2268" width="116" height="34" as="geometry" />
        </mxCell>
        <mxCell id="36" value="Empregado29" style="rounded=1;absoluteArcSize=1;arcSize=14;whiteSpace=wrap;strokeWidth=2;" vertex="1" parent="1">
          <mxGeometry x="239" y="2352" width="116" height="34" as="geometry" />
        </mxCell>
        <mxCell id="37" value="Empregado30" style="rounded=1;absoluteArcSize=1;arcSize=14;whiteSpace=wrap;strokeWidth=2;" vertex="1" parent="1">
          <mxGeometry x="239" y="2436" width="116" height="34" as="geometry" />
        </mxCell>
        <mxCell id="38" value="Empregado31" style="rounded=1;absoluteArcSize=1;arcSize=14;whiteSpace=wrap;strokeWidth=2;" vertex="1" parent="1">
          <mxGeometry x="239" y="2520" width="116" height="34" as="geometry" />
        </mxCell>
        <mxCell id="39" value="Empregado32" style="rounded=1;absoluteArcSize=1;arcSize=14;whiteSpace=wrap;strokeWidth=2;" vertex="1" parent="1">
          <mxGeometry x="239" y="2604" width="116" height="34" as="geometry" />
        </mxCell>
        <mxCell id="40" value="Empregado33" style="rounded=1;absoluteArcSize=1;arcSize=14;whiteSpace=wrap;strokeWidth=2;" vertex="1" parent="1">
          <mxGeometry x="239" y="2688" width="116" height="34" as="geometry" />
        </mxCell>
        <mxCell id="41" value="Empregado34" style="rounded=1;absoluteArcSize=1;arcSize=14;whiteSpace=wrap;strokeWidth=2;" vertex="1" parent="1">
          <mxGeometry x="239" y="2772" width="116" height="34" as="geometry" />
        </mxCell>
        <mxCell id="42" value="Empregado35" style="rounded=1;absoluteArcSize=1;arcSize=14;whiteSpace=wrap;strokeWidth=2;" vertex="1" parent="1">
          <mxGeometry x="239" y="2856" width="116" height="34" as="geometry" />
        </mxCell>
        <mxCell id="43" value="" style="curved=1;startArrow=none;endArrow=block;exitX=0.52;exitY=0;entryX=0;entryY=0.5;" edge="1" parent="1" source="2" target="3">
          <mxGeometry relative="1" as="geometry">
            <Array as="points">
              <mxPoint x="83" y="269" />
            </Array>
          </mxGeometry>
        </mxCell>
        <mxCell id="44" value="" style="curved=1;startArrow=none;endArrow=block;exitX=0.54;exitY=0;entryX=0;entryY=0.5;" edge="1" parent="1" source="2" target="4">
          <mxGeometry relative="1" as="geometry">
            <Array as="points">
              <mxPoint x="83" y="857" />
            </Array>
          </mxGeometry>
        </mxCell>
        <mxCell id="45" value="" style="curved=1;startArrow=none;endArrow=block;exitX=0.99;exitY=0.5;entryX=0;entryY=0.5;" edge="1" parent="1" source="2" target="5">
          <mxGeometry relative="1" as="geometry">
            <Array as="points" />
          </mxGeometry>
        </mxCell>
        <mxCell id="46" value="" style="curved=1;startArrow=none;endArrow=block;exitX=0.54;exitY=1;entryX=0;entryY=0.5;" edge="1" parent="1" source="2" target="6">
          <mxGeometry relative="1" as="geometry">
            <Array as="points">
              <mxPoint x="83" y="2033" />
            </Array>
          </mxGeometry>
        </mxCell>
        <mxCell id="47" value="" style="curved=1;startArrow=none;endArrow=block;exitX=0.52;exitY=1;entryX=0;entryY=0.5;" edge="1" parent="1" source="2" target="7">
          <mxGeometry relative="1" as="geometry">
            <Array as="points">
              <mxPoint x="83" y="2621" />
            </Array>
          </mxGeometry>
        </mxCell>
        <mxCell id="48" value="" style="curved=1;startArrow=none;endArrow=block;exitX=0.55;exitY=0;entryX=0;entryY=0.5;" edge="1" parent="1" source="3" target="8">
          <mxGeometry relative="1" as="geometry">
            <Array as="points">
              <mxPoint x="214" y="17" />
            </Array>
          </mxGeometry>
        </mxCell>
        <mxCell id="49" value="" style="curved=1;startArrow=none;endArrow=block;exitX=0.58;exitY=0;entryX=0;entryY=0.5;" edge="1" parent="1" source="3" target="9">
          <mxGeometry relative="1" as="geometry">
            <Array as="points">
              <mxPoint x="214" y="101" />
            </Array>
          </mxGeometry>
        </mxCell>
        <mxCell id="50" value="" style="curved=1;startArrow=none;endArrow=block;exitX=0.66;exitY=0;entryX=0;entryY=0.5;" edge="1" parent="1" source="3" target="10">
          <mxGeometry relative="1" as="geometry">
            <Array as="points">
              <mxPoint x="214" y="185" />
            </Array>
          </mxGeometry>
        </mxCell>
        <mxCell id="51" value="" style="curved=1;startArrow=none;endArrow=block;exitX=0.99;exitY=0.5;entryX=0;entryY=0.5;" edge="1" parent="1" source="3" target="11">
          <mxGeometry relative="1" as="geometry">
            <Array as="points" />
          </mxGeometry>
        </mxCell>
        <mxCell id="52" value="" style="curved=1;startArrow=none;endArrow=block;exitX=0.66;exitY=1;entryX=0;entryY=0.5;" edge="1" parent="1" source="3" target="12">
          <mxGeometry relative="1" as="geometry">
            <Array as="points">
              <mxPoint x="214" y="353" />
            </Array>
          </mxGeometry>
        </mxCell>
        <mxCell id="53" value="" style="curved=1;startArrow=none;endArrow=block;exitX=0.58;exitY=1;entryX=0;entryY=0.5;" edge="1" parent="1" source="3" target="13">
          <mxGeometry relative="1" as="geometry">
            <Array as="points">
              <mxPoint x="214" y="437" />
            </Array>
          </mxGeometry>
        </mxCell>
        <mxCell id="54" value="" style="curved=1;startArrow=none;endArrow=block;exitX=0.55;exitY=1;entryX=0;entryY=0.5;" edge="1" parent="1" source="3" target="14">
          <mxGeometry relative="1" as="geometry">
            <Array as="points">
              <mxPoint x="214" y="521" />
            </Array>
          </mxGeometry>
        </mxCell>
        <mxCell id="55" value="" style="curved=1;startArrow=none;endArrow=block;exitX=0.55;exitY=0;entryX=0;entryY=0.5;" edge="1" parent="1" source="4" target="15">
          <mxGeometry relative="1" as="geometry">
            <Array as="points">
              <mxPoint x="214" y="605" />
            </Array>
          </mxGeometry>
        </mxCell>
        <mxCell id="56" value="" style="curved=1;startArrow=none;endArrow=block;exitX=0.58;exitY=0;entryX=0;entryY=0.5;" edge="1" parent="1" source="4" target="16">
          <mxGeometry relative="1" as="geometry">
            <Array as="points">
              <mxPoint x="214" y="689" />
            </Array>
          </mxGeometry>
        </mxCell>
        <mxCell id="57" value="" style="curved=1;startArrow=none;endArrow=block;exitX=0.66;exitY=0;entryX=0;entryY=0.5;" edge="1" parent="1" source="4" target="17">
          <mxGeometry relative="1" as="geometry">
            <Array as="points">
              <mxPoint x="214" y="773" />
            </Array>
          </mxGeometry>
        </mxCell>
        <mxCell id="58" value="" style="curved=1;startArrow=none;endArrow=block;exitX=0.99;exitY=0.5;entryX=0;entryY=0.5;" edge="1" parent="1" source="4" target="18">
          <mxGeometry relative="1" as="geometry">
            <Array as="points" />
          </mxGeometry>
        </mxCell>
        <mxCell id="59" value="" style="curved=1;startArrow=none;endArrow=block;exitX=0.66;exitY=1;entryX=0;entryY=0.5;" edge="1" parent="1" source="4" target="19">
          <mxGeometry relative="1" as="geometry">
            <Array as="points">
              <mxPoint x="214" y="941" />
            </Array>
          </mxGeometry>
        </mxCell>
        <mxCell id="60" value="" style="curved=1;startArrow=none;endArrow=block;exitX=0.58;exitY=1;entryX=0;entryY=0.5;" edge="1" parent="1" source="4" target="20">
          <mxGeometry relative="1" as="geometry">
            <Array as="points">
              <mxPoint x="214" y="1025" />
            </Array>
          </mxGeometry>
        </mxCell>
        <mxCell id="61" value="" style="curved=1;startArrow=none;endArrow=block;exitX=0.55;exitY=1;entryX=0;entryY=0.5;" edge="1" parent="1" source="4" target="21">
          <mxGeometry relative="1" as="geometry">
            <Array as="points">
              <mxPoint x="214" y="1109" />
            </Array>
          </mxGeometry>
        </mxCell>
        <mxCell id="62" value="" style="curved=1;startArrow=none;endArrow=block;exitX=0.55;exitY=0;entryX=0;entryY=0.5;" edge="1" parent="1" source="5" target="22">
          <mxGeometry relative="1" as="geometry">
            <Array as="points">
              <mxPoint x="214" y="1193" />
            </Array>
          </mxGeometry>
        </mxCell>
        <mxCell id="63" value="" style="curved=1;startArrow=none;endArrow=block;exitX=0.58;exitY=0;entryX=0;entryY=0.5;" edge="1" parent="1" source="5" target="23">
          <mxGeometry relative="1" as="geometry">
            <Array as="points">
              <mxPoint x="214" y="1277" />
            </Array>
          </mxGeometry>
        </mxCell>
        <mxCell id="64" value="" style="curved=1;startArrow=none;endArrow=block;exitX=0.66;exitY=0;entryX=0;entryY=0.5;" edge="1" parent="1" source="5" target="24">
          <mxGeometry relative="1" as="geometry">
            <Array as="points">
              <mxPoint x="214" y="1361" />
            </Array>
          </mxGeometry>
        </mxCell>
        <mxCell id="65" value="" style="curved=1;startArrow=none;endArrow=block;exitX=0.99;exitY=0.5;entryX=0;entryY=0.5;" edge="1" parent="1" source="5" target="25">
          <mxGeometry relative="1" as="geometry">
            <Array as="points" />
          </mxGeometry>
        </mxCell>
        <mxCell id="66" value="" style="curved=1;startArrow=none;endArrow=block;exitX=0.66;exitY=1;entryX=0;entryY=0.5;" edge="1" parent="1" source="5" target="26">
          <mxGeometry relative="1" as="geometry">
            <Array as="points">
              <mxPoint x="214" y="1529" />
            </Array>
          </mxGeometry>
        </mxCell>
        <mxCell id="67" value="" style="curved=1;startArrow=none;endArrow=block;exitX=0.58;exitY=1;entryX=0;entryY=0.5;" edge="1" parent="1" source="5" target="27">
          <mxGeometry relative="1" as="geometry">
            <Array as="points">
              <mxPoint x="214" y="1613" />
            </Array>
          </mxGeometry>
        </mxCell>
        <mxCell id="68" value="" style="curved=1;startArrow=none;endArrow=block;exitX=0.55;exitY=1;entryX=0;entryY=0.5;" edge="1" parent="1" source="5" target="28">
          <mxGeometry relative="1" as="geometry">
            <Array as="points">
              <mxPoint x="214" y="1697" />
            </Array>
          </mxGeometry>
        </mxCell>
        <mxCell id="69" value="" style="curved=1;startArrow=none;endArrow=block;exitX=0.55;exitY=0;entryX=0;entryY=0.5;" edge="1" parent="1" source="6" target="29">
          <mxGeometry relative="1" as="geometry">
            <Array as="points">
              <mxPoint x="214" y="1781" />
            </Array>
          </mxGeometry>
        </mxCell>
        <mxCell id="70" value="" style="curved=1;startArrow=none;endArrow=block;exitX=0.58;exitY=0;entryX=0;entryY=0.5;" edge="1" parent="1" source="6" target="30">
          <mxGeometry relative="1" as="geometry">
            <Array as="points">
              <mxPoint x="214" y="1865" />
            </Array>
          </mxGeometry>
        </mxCell>
        <mxCell id="71" value="" style="curved=1;startArrow=none;endArrow=block;exitX=0.66;exitY=0;entryX=0;entryY=0.5;" edge="1" parent="1" source="6" target="31">
          <mxGeometry relative="1" as="geometry">
            <Array as="points">
              <mxPoint x="214" y="1949" />
            </Array>
          </mxGeometry>
        </mxCell>
        <mxCell id="72" value="" style="curved=1;startArrow=none;endArrow=block;exitX=0.99;exitY=0.5;entryX=0;entryY=0.5;" edge="1" parent="1" source="6" target="32">
          <mxGeometry relative="1" as="geometry">
            <Array as="points" />
          </mxGeometry>
        </mxCell>
        <mxCell id="73" value="" style="curved=1;startArrow=none;endArrow=block;exitX=0.66;exitY=1;entryX=0;entryY=0.5;" edge="1" parent="1" source="6" target="33">
          <mxGeometry relative="1" as="geometry">
            <Array as="points">
              <mxPoint x="214" y="2117" />
            </Array>
          </mxGeometry>
        </mxCell>
        <mxCell id="74" value="" style="curved=1;startArrow=none;endArrow=block;exitX=0.58;exitY=1;entryX=0;entryY=0.5;" edge="1" parent="1" source="6" target="34">
          <mxGeometry relative="1" as="geometry">
            <Array as="points">
              <mxPoint x="214" y="2201" />
            </Array>
          </mxGeometry>
        </mxCell>
        <mxCell id="75" value="" style="curved=1;startArrow=none;endArrow=block;exitX=0.55;exitY=1;entryX=0;entryY=0.5;" edge="1" parent="1" source="6" target="35">
          <mxGeometry relative="1" as="geometry">
            <Array as="points">
              <mxPoint x="214" y="2285" />
            </Array>
          </mxGeometry>
        </mxCell>
        <mxCell id="76" value="" style="curved=1;startArrow=none;endArrow=block;exitX=0.55;exitY=0;entryX=0;entryY=0.5;" edge="1" parent="1" source="7" target="36">
          <mxGeometry relative="1" as="geometry">
            <Array as="points">
              <mxPoint x="214" y="2369" />
            </Array>
          </mxGeometry>
        </mxCell>
        <mxCell id="77" value="" style="curved=1;startArrow=none;endArrow=block;exitX=0.58;exitY=0;entryX=0;entryY=0.5;" edge="1" parent="1" source="7" target="37">
          <mxGeometry relative="1" as="geometry">
            <Array as="points">
              <mxPoint x="214" y="2453" />
            </Array>
          </mxGeometry>
        </mxCell>
        <mxCell id="78" value="" style="curved=1;startArrow=none;endArrow=block;exitX=0.66;exitY=0;entryX=0;entryY=0.5;" edge="1" parent="1" source="7" target="38">
          <mxGeometry relative="1" as="geometry">
            <Array as="points">
              <mxPoint x="214" y="2537" />
            </Array>
          </mxGeometry>
        </mxCell>
        <mxCell id="79" value="" style="curved=1;startArrow=none;endArrow=block;exitX=0.99;exitY=0.5;entryX=0;entryY=0.5;" edge="1" parent="1" source="7" target="39">
          <mxGeometry relative="1" as="geometry">
            <Array as="points" />
          </mxGeometry>
        </mxCell>
        <mxCell id="80" value="" style="curved=1;startArrow=none;endArrow=block;exitX=0.66;exitY=1;entryX=0;entryY=0.5;" edge="1" parent="1" source="7" target="40">
          <mxGeometry relative="1" as="geometry">
            <Array as="points">
              <mxPoint x="214" y="2705" />
            </Array>
          </mxGeometry>
        </mxCell>
        <mxCell id="81" value="" style="curved=1;startArrow=none;endArrow=block;exitX=0.58;exitY=1;entryX=0;entryY=0.5;" edge="1" parent="1" source="7" target="41">
          <mxGeometry relative="1" as="geometry">
            <Array as="points">
              <mxPoint x="214" y="2789" />
            </Array>
          </mxGeometry>
        </mxCell>
        <mxCell id="82" value="" style="curved=1;startArrow=none;endArrow=block;exitX=0.55;exitY=1;entryX=0;entryY=0.5;" edge="1" parent="1" source="7" target="42">
          <mxGeometry relative="1" as="geometry">
            <Array as="points">
              <mxPoint x="214" y="2873" />
            </Array>
          </mxGeometry>
        </mxCell>
      </root>
    </mxGraphModel>
  </diagram>
</mxfile>
